/* XPM */
static char * down_xpm[] = {
"50 50 42 1",
" 	c #CDCDCD",
".	c #FFFFFF",
"+	c #C7C7C7",
"@	c #AAAAAA",
"#	c #959595",
"$	c #8F8F8F",
"%	c #C1C1C1",
"&	c #FDFDFD",
"*	c #353535",
"=	c #949494",
"-	c #393939",
";	c #BBBBBB",
">	c #010101",
",	c #929292",
"'	c #B2B2B2",
")	c #989898",
"!	c #383838",
"~	c #000000",
"{	c #AFAFAF",
"]	c #ACACAC",
"^	c #181818",
"/	c #ECECEC",
"(	c #F0F0F0",
"_	c #161616",
":	c #555555",
"<	c #666666",
"[	c #2C2C2C",
"}	c #B7B7B7",
"|	c #1D1D1D",
"1	c #363636",
"2	c #424242",
"3	c #C2C2C2",
"4	c #373737",
"5	c #3F3F3F",
"6	c #3A3A3A",
"7	c #C3C3C3",
"8	c #404040",
"9	c #414141",
"0	c #F2F2F2",
"a	c #686868",
"b	c #3B3B3B",
"c	c #434343",
" ................................................+",
"@#..............................................$%",
"&*=............................................$-.",
".;>,..........................................$>'.",
"..*>)........................................$>!..",
"..;~>{......................................]>~'..",
"...*~^/....................................(_~!...",
"...;~~:....................................<~~'...",
"....[~~{..................................}>~!....",
"....@~~^/................................(|~~'....",
"....&1~~:................................<~~2.....",
".....;~~~{..............................}>~~3.....",
"......1~~^/............................(|~~-......",
"......;~~~:............................<~~~'......",
".......1~~~{..........................}>~~-.......",
".......;~~~^/........................(|~~~'.......",
"........4~~~:........................<~~~-........",
"........;~~~~{......................}>~~~'........",
".........4~~~^/....................(|~~~-.........",
".........;~~~~:....................<~~~~'.........",
"..........4~~~~{..................}>~~~-..........",
"..........;~~~~^/................(|~~~~'..........",
"...........5~~~~:................<~~~~6...........",
"...........7~~~~~{..............}>~~~~'...........",
"............8~~~~^/............(|~~~~6............",
"............7~~~~~:............<~~~~~'............",
".............8~~~~~{..........}>~~~~6.............",
".............7~~~~~^/........(|~~~~~'.............",
"..............8~~~~~:........<~~~~~6..............",
"..............7~~~~~~{......}>~~~~~'..............",
"...............9~~~~~^/....(|~~~~~6...............",
"...............7~~~~~~:....<~~~~~~'...............",
"................9~~~~~~{..}>~~~~~6................",
"................7~~~~~~^0(|~~~~~~'................",
".................9~~~~~~a<~~~~~~6.................",
".................7~~~~~~>>~~~~~~'.................",
"..................2~~~~~~~~~~~~b..................",
"..................7~~~~~~~~~~~~'..................",
"...................2~~~~~~~~~~b...................",
"...................7~~~~~~~~~~'...................",
"....................2~~~~~~~~b....................",
"....................7~~~~~~~~'....................",
".....................c~~~~~~b.....................",
".....................7~~~~~~'.....................",
"......................c~~~~b......................",
"......................7~~~~'......................",
".......................c~~b.......................",
".......................7~~;.......................",
"........................4b........................",
"........................};........................"};
