/* XPM */
static char * left_xpm[] = {
"50 50 42 1",
" 	c #FFFFFF",
".	c #C1C1C1",
"+	c #C7C7C7",
"@	c #B2B2B2",
"#	c #393939",
"$	c #8F8F8F",
"%	c #383838",
"&	c #010101",
"*	c #000000",
"=	c #C2C2C2",
"-	c #424242",
";	c #161616",
">	c #ACACAC",
",	c #666666",
"'	c #F0F0F0",
")	c #1D1D1D",
"!	c #B7B7B7",
"~	c #3A3A3A",
"{	c #3B3B3B",
"]	c #BBBBBB",
"^	c #373737",
"/	c #686868",
"(	c #F2F2F2",
"_	c #C3C3C3",
":	c #434343",
"<	c #181818",
"[	c #AFAFAF",
"}	c #555555",
"|	c #ECECEC",
"1	c #414141",
"2	c #404040",
"3	c #3F3F3F",
"4	c #363636",
"5	c #FDFDFD",
"6	c #AAAAAA",
"7	c #2C2C2C",
"8	c #989898",
"9	c #353535",
"0	c #929292",
"a	c #949494",
"b	c #959595",
"c	c #CDCDCD",
"                                                .+",
"                                              @#$ ",
"                                            @%&$  ",
"                                          @%*&$   ",
"                                        @%**&$    ",
"                                      =-***;>     ",
"                                    @#***&,'      ",
"                                  @#****)!        ",
"                                @#****&,'         ",
"                              @#*****)!           ",
"                            @#*****&,'            ",
"                          @~******)!              ",
"                        @~******&,'               ",
"                      @~*******)!                 ",
"                    @~*******&,'                  ",
"                  @~********)!                    ",
"                @~********&,'                     ",
"              @~*********)!                       ",
"            @{*********&,'                        ",
"          @{**********)!                          ",
"        @{**********&,'                           ",
"      @{***********)!                             ",
"    @{***********&,'                              ",
"  ]{************)!                                ",
"]{************&,'                                 ",
"!^************&/(                                 ",
"  _:************<[                                ",
"    _:************}|                              ",
"      _:***********<[                             ",
"        _-***********}|                           ",
"          _-**********<[                          ",
"            _-**********}|                        ",
"              _1*********<[                       ",
"                _1*********}|                     ",
"                  _1********<[                    ",
"                    _2********}|                  ",
"                      _2*******<[                 ",
"                        _2*******}|               ",
"                          _3******<[              ",
"                            ]^******}|            ",
"                              ]^*****<[           ",
"                                ]^*****}|         ",
"                                  ]4****<[        ",
"                                    ]4****}|      ",
"                                      ]4***<[     ",
"                                       567**&8    ",
"                                          ]9*&0   ",
"                                            ]9&a  ",
"                                              ]9b ",
"                                               56c"};
