/* XPM */
static char * right_xpm[] = {
"50 50 42 1",
" 	c #C7C7C7",
".	c #C1C1C1",
"+	c #FFFFFF",
"@	c #8F8F8F",
"#	c #393939",
"$	c #B2B2B2",
"%	c #010101",
"&	c #383838",
"*	c #000000",
"=	c #ACACAC",
"-	c #161616",
";	c #424242",
">	c #C2C2C2",
",	c #F0F0F0",
"'	c #666666",
")	c #B7B7B7",
"!	c #1D1D1D",
"~	c #3A3A3A",
"{	c #3B3B3B",
"]	c #BBBBBB",
"^	c #F2F2F2",
"/	c #686868",
"(	c #373737",
"_	c #AFAFAF",
":	c #181818",
"<	c #434343",
"[	c #C3C3C3",
"}	c #ECECEC",
"|	c #555555",
"1	c #414141",
"2	c #404040",
"3	c #3F3F3F",
"4	c #363636",
"5	c #989898",
"6	c #2C2C2C",
"7	c #AAAAAA",
"8	c #FDFDFD",
"9	c #929292",
"0	c #353535",
"a	c #949494",
"b	c #959595",
"c	c #CDCDCD",
" .++++++++++++++++++++++++++++++++++++++++++++++++",
"+@#$++++++++++++++++++++++++++++++++++++++++++++++",
"++@%&$++++++++++++++++++++++++++++++++++++++++++++",
"+++@%*&$++++++++++++++++++++++++++++++++++++++++++",
"++++@%**&$++++++++++++++++++++++++++++++++++++++++",
"+++++=-***;>++++++++++++++++++++++++++++++++++++++",
"++++++,'%***#$++++++++++++++++++++++++++++++++++++",
"++++++++)!****#$++++++++++++++++++++++++++++++++++",
"+++++++++,'%****#$++++++++++++++++++++++++++++++++",
"+++++++++++)!*****#$++++++++++++++++++++++++++++++",
"++++++++++++,'%*****#$++++++++++++++++++++++++++++",
"++++++++++++++)!******~$++++++++++++++++++++++++++",
"+++++++++++++++,'%******~$++++++++++++++++++++++++",
"+++++++++++++++++)!*******~$++++++++++++++++++++++",
"++++++++++++++++++,'%*******~$++++++++++++++++++++",
"++++++++++++++++++++)!********~$++++++++++++++++++",
"+++++++++++++++++++++,'%********~$++++++++++++++++",
"+++++++++++++++++++++++)!*********~$++++++++++++++",
"++++++++++++++++++++++++,'%*********{$++++++++++++",
"++++++++++++++++++++++++++)!**********{$++++++++++",
"+++++++++++++++++++++++++++,'%**********{$++++++++",
"+++++++++++++++++++++++++++++)!***********{$++++++",
"++++++++++++++++++++++++++++++,'%***********{$++++",
"++++++++++++++++++++++++++++++++)!************{]++",
"+++++++++++++++++++++++++++++++++,'%************{]",
"+++++++++++++++++++++++++++++++++^/%************()",
"++++++++++++++++++++++++++++++++_:************<[++",
"++++++++++++++++++++++++++++++}|************<[++++",
"+++++++++++++++++++++++++++++_:***********<[++++++",
"+++++++++++++++++++++++++++}|***********;[++++++++",
"++++++++++++++++++++++++++_:**********;[++++++++++",
"++++++++++++++++++++++++}|**********;[++++++++++++",
"+++++++++++++++++++++++_:*********1[++++++++++++++",
"+++++++++++++++++++++}|*********1[++++++++++++++++",
"++++++++++++++++++++_:********1[++++++++++++++++++",
"++++++++++++++++++}|********2[++++++++++++++++++++",
"+++++++++++++++++_:*******2[++++++++++++++++++++++",
"+++++++++++++++}|*******2[++++++++++++++++++++++++",
"++++++++++++++_:******3[++++++++++++++++++++++++++",
"++++++++++++}|******(]++++++++++++++++++++++++++++",
"+++++++++++_:*****(]++++++++++++++++++++++++++++++",
"+++++++++}|*****(]++++++++++++++++++++++++++++++++",
"++++++++_:****4]++++++++++++++++++++++++++++++++++",
"++++++}|****4]++++++++++++++++++++++++++++++++++++",
"+++++_:***4]++++++++++++++++++++++++++++++++++++++",
"++++5%**678+++++++++++++++++++++++++++++++++++++++",
"+++9%*0]++++++++++++++++++++++++++++++++++++++++++",
"++a%0]++++++++++++++++++++++++++++++++++++++++++++",
"+b0]++++++++++++++++++++++++++++++++++++++++++++++",
"c78+++++++++++++++++++++++++++++++++++++++++++++++"};
