/* XPM */
static char * up_xpm[] = {
"50 50 42 1",
" 	c #FFFFFF",
".	c #B7B7B7",
"+	c #BBBBBB",
"@	c #373737",
"#	c #3B3B3B",
"$	c #C3C3C3",
"%	c #000000",
"&	c #434343",
"*	c #B2B2B2",
"=	c #424242",
"-	c #010101",
";	c #414141",
">	c #686868",
",	c #666666",
"'	c #3A3A3A",
")	c #181818",
"!	c #F2F2F2",
"~	c #F0F0F0",
"{	c #1D1D1D",
"]	c #AFAFAF",
"^	c #555555",
"/	c #ECECEC",
"(	c #404040",
"_	c #3F3F3F",
":	c #393939",
"<	c #363636",
"[	c #C2C2C2",
"}	c #FDFDFD",
"|	c #AAAAAA",
"1	c #2C2C2C",
"2	c #383838",
"3	c #353535",
"4	c #161616",
"5	c #ACACAC",
"6	c #989898",
"7	c #8F8F8F",
"8	c #929292",
"9	c #949494",
"0	c #959595",
"a	c #C1C1C1",
"b	c #CDCDCD",
"c	c #C7C7C7",
"                        .+                        ",
"                        @#                        ",
"                       $%%+                       ",
"                       &%%#                       ",
"                      $%%%%*                      ",
"                      &%%%%#                      ",
"                     $%%%%%%*                     ",
"                     &%%%%%%#                     ",
"                    $%%%%%%%%*                    ",
"                    =%%%%%%%%#                    ",
"                   $%%%%%%%%%%*                   ",
"                   =%%%%%%%%%%#                   ",
"                  $%%%%%%%%%%%%*                  ",
"                  =%%%%%%%%%%%%#                  ",
"                 $%%%%%%--%%%%%%*                 ",
"                 ;%%%%%%>,%%%%%%'                 ",
"                $%%%%%%)!~{%%%%%%*                ",
"                ;%%%%%%]  .-%%%%%'                ",
"               $%%%%%%^    ,%%%%%%*               ",
"               ;%%%%%)/    ~{%%%%%'               ",
"              $%%%%%%]      .-%%%%%*              ",
"              (%%%%%^        ,%%%%%'              ",
"             $%%%%%)/        ~{%%%%%*             ",
"             (%%%%%]          .-%%%%'             ",
"            $%%%%%^            ,%%%%%*            ",
"            (%%%%)/            ~{%%%%'            ",
"           $%%%%%]              .-%%%%*           ",
"           _%%%%^                ,%%%%'           ",
"          +%%%%)/                ~{%%%%*          ",
"          @%%%%]                  .-%%%:          ",
"         +%%%%^                    ,%%%%*         ",
"         @%%%)/                    ~{%%%:         ",
"        +%%%%]                      .-%%%*        ",
"        @%%%^                        ,%%%:        ",
"       +%%%)/                        ~{%%%*       ",
"       <%%%]                          .-%%:       ",
"      +%%%^                            ,%%%*      ",
"      <%%)/                            ~{%%:      ",
"     +%%%]                              .-%%[     ",
"    }<%%^                                ,%%=     ",
"    |%%)/                                ~{%%*    ",
"    1%%]                                  .-%2    ",
"   +%%^                                    ,%%*   ",
"   3%)/                                    ~4%2   ",
"  +%-]                                      5-%*  ",
"  3-6                                        7-2  ",
" +-8                                          7-* ",
"}39                                            7: ",
"|0                                              7a",
"b                                                c"};
